PathFileType	4	(X/Y/Z)	T1_P2_Vision_NoMovement_4_0-734.trc
DataRate	CameraRate	NumFrames	NumMarkers	Units	OrigDataRate	OrigDataStartFrame	OrigNumFrames
60	60	4	27	m	60	0	734
Frame#	Time	RHip			RKnee			RAnkle			RBigToe			RSmallToe			RHeel			LHip			LKnee			LAnkle			LBigToe			LSmallToe			LHeel			Neck			Head			Nose			RShoulder			RElbow			RWrist			RThumb			RIndex			RPinky			LShoulder			LElbow			LWrist			LThumb			LIndex			LPinky		
		X1	Y1	Z1	X2	Y2	Z2	X3	Y3	Z3	X4	Y4	Z4	X5	Y5	Z5	X6	Y6	Z6	X7	Y7	Z7	X8	Y8	Z8	X9	Y9	Z9	X10	Y10	Z10	X11	Y11	Z11	X12	Y12	Z12	X13	Y13	Z13	X14	Y14	Z14	X15	Y15	Z15	X16	Y16	Z16	X17	Y17	Z17	X18	Y18	Z18	X19	Y19	Z19	X20	Y20	Z20	X21	Y21	Z21	X22	Y22	Z22	X23	Y23	Z23	X24	Y24	Z24	X25	Y25	Z25	X26	Y26	Z26	X27	Y27	Z27
1	0.016666666666666666	463.8472148749684	3780.492301310968	660.5791129895445	843.1164630594849	3810.801742930789	659.4153961140152	1207.6353607603348	3735.627670828513	669.7597745620088	1290.3154907993096	3642.9124744149335	649.4414638292175	1288.80775892851	3685.462230444359	603.7420879222581	1268.0689349299348	3790.765829281768	738.3972547377923	463.1129629162614	3651.2038301594785	856.9722472874681	839.78630162553	3660.641562844608	853.8065369932534	1228.4671872091646	3688.412420855044	866.1423867780225	1309.4146083137261	3561.6809139739967	811.4323928913448	1283.206601647654	3537.503132956303	844.5798894747273	1250.8410017654878	3702.309241915798	855.9201092034107	-124.32461766946292	3663.2828053025855	736.0517685897327	-387.24951382298843	3561.2698364987696	675.6988448491857	-241.11283224754476	3521.9858921359114	650.3924561175113	-42.123503612637634	3758.423314874131	596.684765571376	200.71418547876974	3748.7983002438946	534.6885794445791	346.19019572011007	3568.859941036611	620.9506291184747	412.69013605578516	3532.2477756020803	686.9271915628395	437.65263845220255	3553.0619483916935	721.4912168521627	450.64110310649704	3470.6486877606976	657.9651516861193	-39.75602640722539	3591.4285674398297	879.7742380927106	210.72902317327686	3506.6808148663704	889.7180384382327	364.0545532480867	3493.2096643145637	732.7027158724344	414.1177504874993	3514.852731037772	628.2234672655468	447.4511988186264	3546.169972420066	633.0511984293863	465.4557067436121	3472.442770196588	669.6204477370186
2	0.03333333333333333	460.23849419590357	3761.1709371558904	650.9249834633646	842.8189611218144	3810.8998719287665	659.4573789773079	1201.5063539838566	3729.553429771486	674.1176711021519	1297.7210216706	3659.2412982334663	662.5297084309959	1286.3709179244347	3691.4862764978716	607.0602722470297	1261.9896528373738	3786.3519449535825	737.3382076509096	462.98359448628156	3650.920884775611	856.7502147669215	839.4692115170099	3660.6543522767183	853.7533982082962	1219.3642576040154	3664.8707532269045	847.1897229238625	1297.0995179051095	3545.540374582434	796.3250953537998	1270.680511486691	3531.181610756309	841.3314231944929	1253.1008634548718	3695.985747996533	852.2548007251451	-124.45735379465351	3663.3531357384463	736.1143337580908	-387.1983731601783	3561.387586771286	675.7294154081068	-241.248078315405	3521.789637361961	650.3366088218893	-46.95980062531497	3753.8117650662452	594.9204952393358	198.27636903900557	3774.770751322082	541.4046111674847	341.3635410428383	3567.484738764868	619.9100024746826	407.1475753775651	3531.774733220907	685.2512272324885	434.16517338140386	3561.5740834816697	720.1409531607251	452.8507074002844	3504.3688726720443	675.9953908212565	-44.400937659433815	3587.4848744002898	877.8944133081751	210.8347358343145	3506.4302460941435	889.6012613043865	364.05349688138165	3493.326831923374	732.6820797773773	411.2663195904627	3494.5210092685534	622.8738266121243	440.62654909574167	3529.211994630431	629.787849798778	461.67067879944295	3471.0501591673406	668.6433502511483
3	0.05	460.26341734173025	3763.231822283505	646.5089289982236	846.443206420369	3805.445466178685	656.629555140433	1207.8505529215681	3736.045365549195	669.9354085362477	1297.8513715929553	3660.717139190658	662.8011963580476	1294.0724283917207	3713.4320937582675	612.6462927048516	1268.162377581752	3791.1331817777686	738.5451025921955	459.02528345764364	3655.865509669238	859.6174898911672	839.569515176935	3660.6252450891916	853.7452073136916	1216.2474628754658	3671.1444053623763	850.9077445811761	1304.1993411382057	3560.426828889321	809.9523530076334	1270.242447022993	3531.7861585807436	841.509887376061	1250.4404398209008	3701.9608742055034	855.8143908831041	-124.418352930196	3663.2146968448383	735.9609167158212	-387.1860789328279	3561.358230363007	675.6476973953964	-241.20230605973927	3521.9168924454484	650.3832660963217	-42.28289856895389	3758.075328248036	596.4619031268537	198.2497145149829	3774.9183414259096	541.4210197846169	341.26563178910413	3567.715841616483	620.0045097459332	398.86810156573756	3512.074156871419	669.7798829541601	429.1024189366595	3558.916462411608	718.9806945387844	452.729077510102	3504.8424909768896	676.380007030279	-39.708602229148404	3591.3531478732316	879.6694421361331	210.89393222347098	3506.4591852944154	889.6469717677836	364.02688633897975	3493.3877772698925	732.7327770548624	414.0367633567729	3514.2692091998674	628.1811164059626	440.403248983205	3529.465060639811	629.6494791730704	458.30697331900194	3475.5139205673768	671.3213653443323
4	0.06666666666666667	460.36928902092524	3761.3687663555697	651.0527399538261	842.9867786383384	3810.8520336338047	659.485349064307	1201.2702654388263	3731.9908955653295	668.8751523511733	1297.6891114466819	3660.8312655007207	662.5767778888462	1294.028956082638	3713.7708021828644	612.7935847581575	1261.5957737066838	3786.567995617103	737.3937710102339	459.06778969409106	3655.9716558999216	859.6232192159093	844.7798000005388	3676.117586907895	867.5220456848972	1223.1940927549126	3686.277607834655	864.2594017103567	1309.3133469263366	3562.1461744513826	811.7846150873269	1275.489547880194	3533.4081129148335	843.1212816170527	1250.6072233933612	3701.978680274754	855.7817907521692	-124.33912330895826	3663.345949018316	736.0256452530937	-388.85427381301054	3582.359629710604	681.8410777306553	-241.13637398318087	3521.9808833386105	650.3804758414457	-42.275723396097355	3758.0048737956613	596.4581799707553	198.20399733079938	3774.867775301511	541.3782273135527	341.2758692708848	3567.8876266329285	619.9962480880507	405.25547999761335	3549.9088472904295	690.1905833239695	429.22501846281716	3561.053634198708	719.7988466103241	452.6282343162134	3506.679684706419	671.6347149053712	-39.68434208784083	3591.4757731333625	879.7126241146233	210.90074190903502	3506.497497163482	889.6661308960533	363.938233804845	3493.4254214755074	732.6882882617606	413.95050136323346	3513.921539265428	627.6828028858666	440.24976394309454	3529.1250375773257	629.1934808878611	461.04440658695046	3475.1349001163217	665.8644258589005
